<mxfile host="app.diagrams.net" modified="2023-08-07T13:46:34.593Z" agent="Mozilla/5.0 (Windows NT 10.0; Win64; x64) AppleWebKit/537.36 (KHTML, like Gecko) Chrome/115.0.0.0 Safari/537.36" etag="kjdYcmtAVBv9j6CM_tV-" version="21.6.1" type="device">
  <diagram name="Page-1" id="WknYwu7Dem1ws23Nm--5">
    <mxGraphModel dx="1195" dy="1801" grid="1" gridSize="10" guides="1" tooltips="1" connect="1" arrows="1" fold="1" page="1" pageScale="1" pageWidth="850" pageHeight="1100" math="0" shadow="0">
      <root>
        <mxCell id="0" />
        <mxCell id="1" parent="0" />
        <mxCell id="VapDUICd6mzBCZcJKw8F-30" value="LanguageServer&lt;div style=&quot;font-size: 14px;&quot;&gt;&lt;/div&gt;" style="rounded=0;whiteSpace=wrap;html=1;dashed=1;verticalAlign=bottom;align=right;fontSize=14;" vertex="1" parent="1">
          <mxGeometry x="410" y="100" width="360" height="270" as="geometry" />
        </mxCell>
        <mxCell id="VapDUICd6mzBCZcJKw8F-8" style="edgeStyle=orthogonalEdgeStyle;rounded=0;orthogonalLoop=1;jettySize=auto;html=1;entryX=0.145;entryY=0;entryDx=0;entryDy=4.35;entryPerimeter=0;" edge="1" parent="1" source="VapDUICd6mzBCZcJKw8F-1" target="VapDUICd6mzBCZcJKw8F-6">
          <mxGeometry relative="1" as="geometry">
            <Array as="points">
              <mxPoint x="100" y="400" />
              <mxPoint x="450" y="400" />
            </Array>
          </mxGeometry>
        </mxCell>
        <mxCell id="VapDUICd6mzBCZcJKw8F-9" value="Change" style="edgeLabel;html=1;align=center;verticalAlign=middle;resizable=0;points=[];fontSize=14;" vertex="1" connectable="0" parent="VapDUICd6mzBCZcJKw8F-8">
          <mxGeometry x="0.1989" y="2" relative="1" as="geometry">
            <mxPoint x="-18" as="offset" />
          </mxGeometry>
        </mxCell>
        <mxCell id="VapDUICd6mzBCZcJKw8F-15" style="edgeStyle=orthogonalEdgeStyle;rounded=0;orthogonalLoop=1;jettySize=auto;html=1;entryX=0.5;entryY=0;entryDx=0;entryDy=0;exitX=0.5;exitY=0;exitDx=0;exitDy=0;" edge="1" parent="1" source="VapDUICd6mzBCZcJKw8F-1" target="VapDUICd6mzBCZcJKw8F-2">
          <mxGeometry relative="1" as="geometry">
            <Array as="points">
              <mxPoint x="100" y="60" />
              <mxPoint x="500" y="60" />
            </Array>
          </mxGeometry>
        </mxCell>
        <mxCell id="VapDUICd6mzBCZcJKw8F-16" value="SendActualProjectMap" style="edgeLabel;html=1;align=center;verticalAlign=middle;resizable=0;points=[];fontSize=14;" vertex="1" connectable="0" parent="VapDUICd6mzBCZcJKw8F-15">
          <mxGeometry x="0.0857" y="2" relative="1" as="geometry">
            <mxPoint x="-31" as="offset" />
          </mxGeometry>
        </mxCell>
        <mxCell id="VapDUICd6mzBCZcJKw8F-17" style="edgeStyle=orthogonalEdgeStyle;rounded=0;orthogonalLoop=1;jettySize=auto;html=1;exitX=0.75;exitY=0;exitDx=0;exitDy=0;entryX=0.25;entryY=0;entryDx=0;entryDy=0;" edge="1" parent="1" source="VapDUICd6mzBCZcJKw8F-1" target="VapDUICd6mzBCZcJKw8F-2">
          <mxGeometry relative="1" as="geometry">
            <Array as="points">
              <mxPoint x="130" y="90" />
              <mxPoint x="470" y="90" />
            </Array>
          </mxGeometry>
        </mxCell>
        <mxCell id="VapDUICd6mzBCZcJKw8F-18" value="SuspendProjectMapGeneration" style="edgeLabel;html=1;align=center;verticalAlign=middle;resizable=0;points=[];fontSize=14;" vertex="1" connectable="0" parent="VapDUICd6mzBCZcJKw8F-17">
          <mxGeometry x="-0.364" y="-2" relative="1" as="geometry">
            <mxPoint x="59" y="-1" as="offset" />
          </mxGeometry>
        </mxCell>
        <mxCell id="VapDUICd6mzBCZcJKw8F-22" style="edgeStyle=orthogonalEdgeStyle;rounded=0;orthogonalLoop=1;jettySize=auto;html=1;exitX=1;exitY=0.25;exitDx=0;exitDy=0;entryX=0;entryY=0.25;entryDx=0;entryDy=0;" edge="1" parent="1" source="VapDUICd6mzBCZcJKw8F-1" target="VapDUICd6mzBCZcJKw8F-2">
          <mxGeometry relative="1" as="geometry" />
        </mxCell>
        <mxCell id="VapDUICd6mzBCZcJKw8F-23" value="Unsaved changes" style="edgeLabel;html=1;align=center;verticalAlign=middle;resizable=0;points=[];fontSize=14;" vertex="1" connectable="0" parent="VapDUICd6mzBCZcJKw8F-22">
          <mxGeometry x="-0.2381" y="-1" relative="1" as="geometry">
            <mxPoint x="13" y="-3" as="offset" />
          </mxGeometry>
        </mxCell>
        <mxCell id="VapDUICd6mzBCZcJKw8F-1" value="VS Code Extension&lt;br style=&quot;font-size: 14px;&quot;&gt;" style="rounded=0;whiteSpace=wrap;html=1;fontSize=14;" vertex="1" parent="1">
          <mxGeometry x="40" y="120" width="120" height="50" as="geometry" />
        </mxCell>
        <mxCell id="VapDUICd6mzBCZcJKw8F-13" style="edgeStyle=orthogonalEdgeStyle;rounded=0;orthogonalLoop=1;jettySize=auto;html=1;entryX=0.5;entryY=0;entryDx=0;entryDy=0;" edge="1" parent="1" source="VapDUICd6mzBCZcJKw8F-2" target="VapDUICd6mzBCZcJKw8F-3">
          <mxGeometry relative="1" as="geometry">
            <Array as="points">
              <mxPoint x="685" y="145" />
            </Array>
          </mxGeometry>
        </mxCell>
        <mxCell id="VapDUICd6mzBCZcJKw8F-14" value="CreateProjectMap" style="edgeLabel;html=1;align=center;verticalAlign=middle;resizable=0;points=[];fontSize=14;" vertex="1" connectable="0" parent="VapDUICd6mzBCZcJKw8F-13">
          <mxGeometry x="-0.2182" y="2" relative="1" as="geometry">
            <mxPoint x="-1" y="2" as="offset" />
          </mxGeometry>
        </mxCell>
        <mxCell id="VapDUICd6mzBCZcJKw8F-24" style="edgeStyle=orthogonalEdgeStyle;rounded=0;orthogonalLoop=1;jettySize=auto;html=1;exitX=0;exitY=0.75;exitDx=0;exitDy=0;entryX=1;entryY=0.75;entryDx=0;entryDy=0;" edge="1" parent="1" source="VapDUICd6mzBCZcJKw8F-2" target="VapDUICd6mzBCZcJKw8F-1">
          <mxGeometry relative="1" as="geometry" />
        </mxCell>
        <mxCell id="VapDUICd6mzBCZcJKw8F-25" value="ProjectMap" style="edgeLabel;html=1;align=center;verticalAlign=middle;resizable=0;points=[];fontSize=14;" vertex="1" connectable="0" parent="VapDUICd6mzBCZcJKw8F-24">
          <mxGeometry x="0.3452" relative="1" as="geometry">
            <mxPoint x="18" as="offset" />
          </mxGeometry>
        </mxCell>
        <mxCell id="VapDUICd6mzBCZcJKw8F-2" value="ProjectKeeper" style="rounded=0;whiteSpace=wrap;html=1;fontSize=14;" vertex="1" parent="1">
          <mxGeometry x="440" y="120" width="120" height="50" as="geometry" />
        </mxCell>
        <mxCell id="VapDUICd6mzBCZcJKw8F-3" value="ProjectMapFactory" style="rounded=0;whiteSpace=wrap;html=1;fontSize=14;" vertex="1" parent="1">
          <mxGeometry x="620" y="210" width="130" height="50" as="geometry" />
        </mxCell>
        <mxCell id="VapDUICd6mzBCZcJKw8F-11" style="edgeStyle=orthogonalEdgeStyle;rounded=0;orthogonalLoop=1;jettySize=auto;html=1;entryX=0.5;entryY=0;entryDx=0;entryDy=0;entryPerimeter=0;" edge="1" parent="1" source="VapDUICd6mzBCZcJKw8F-4" target="VapDUICd6mzBCZcJKw8F-6">
          <mxGeometry relative="1" as="geometry" />
        </mxCell>
        <mxCell id="VapDUICd6mzBCZcJKw8F-12" value="Monitor" style="edgeLabel;html=1;align=center;verticalAlign=middle;resizable=0;points=[];fontSize=14;" vertex="1" connectable="0" parent="VapDUICd6mzBCZcJKw8F-11">
          <mxGeometry x="0.0333" y="2" relative="1" as="geometry">
            <mxPoint x="-2" y="4" as="offset" />
          </mxGeometry>
        </mxCell>
        <mxCell id="VapDUICd6mzBCZcJKw8F-28" style="edgeStyle=orthogonalEdgeStyle;rounded=0;orthogonalLoop=1;jettySize=auto;html=1;entryX=0.5;entryY=1;entryDx=0;entryDy=0;" edge="1" parent="1" source="VapDUICd6mzBCZcJKw8F-4" target="VapDUICd6mzBCZcJKw8F-2">
          <mxGeometry relative="1" as="geometry" />
        </mxCell>
        <mxCell id="VapDUICd6mzBCZcJKw8F-29" value="ReloadProject,&lt;br style=&quot;font-size: 14px;&quot;&gt;update UnsavedChanges,&lt;br style=&quot;font-size: 14px;&quot;&gt;SendActualProjectMap" style="edgeLabel;html=1;align=center;verticalAlign=middle;resizable=0;points=[];fontSize=14;" vertex="1" connectable="0" parent="VapDUICd6mzBCZcJKw8F-28">
          <mxGeometry x="-0.0103" relative="1" as="geometry">
            <mxPoint as="offset" />
          </mxGeometry>
        </mxCell>
        <mxCell id="VapDUICd6mzBCZcJKw8F-4" value="Project&lt;br style=&quot;font-size: 14px;&quot;&gt;FilesWatcher" style="rounded=0;whiteSpace=wrap;html=1;fontSize=14;" vertex="1" parent="1">
          <mxGeometry x="440" y="300" width="120" height="50" as="geometry" />
        </mxCell>
        <mxCell id="VapDUICd6mzBCZcJKw8F-7" style="edgeStyle=orthogonalEdgeStyle;rounded=0;orthogonalLoop=1;jettySize=auto;html=1;entryX=0;entryY=0;entryDx=0;entryDy=52.5;entryPerimeter=0;exitX=1;exitY=0.3333333333333333;exitDx=0;exitDy=0;exitPerimeter=0;" edge="1" parent="1" source="VapDUICd6mzBCZcJKw8F-5" target="VapDUICd6mzBCZcJKw8F-6">
          <mxGeometry relative="1" as="geometry">
            <Array as="points">
              <mxPoint x="115" y="473" />
              <mxPoint x="150" y="473" />
            </Array>
          </mxGeometry>
        </mxCell>
        <mxCell id="VapDUICd6mzBCZcJKw8F-10" value="Change" style="edgeLabel;html=1;align=center;verticalAlign=middle;resizable=0;points=[];fontSize=14;" vertex="1" connectable="0" parent="VapDUICd6mzBCZcJKw8F-7">
          <mxGeometry x="0.3504" y="2" relative="1" as="geometry">
            <mxPoint x="-108" as="offset" />
          </mxGeometry>
        </mxCell>
        <mxCell id="VapDUICd6mzBCZcJKw8F-5" value="User" style="shape=umlActor;verticalLabelPosition=bottom;verticalAlign=top;html=1;outlineConnect=0;fontSize=14;" vertex="1" parent="1">
          <mxGeometry x="85" y="450" width="30" height="60" as="geometry" />
        </mxCell>
        <mxCell id="VapDUICd6mzBCZcJKw8F-6" value="File system" style="shape=cylinder3;whiteSpace=wrap;html=1;boundedLbl=1;backgroundOutline=1;size=15;fontSize=14;" vertex="1" parent="1">
          <mxGeometry x="430" y="420" width="140" height="80" as="geometry" />
        </mxCell>
        <mxCell id="VapDUICd6mzBCZcJKw8F-21" style="edgeStyle=orthogonalEdgeStyle;rounded=0;orthogonalLoop=1;jettySize=auto;html=1;exitX=0.5;exitY=1;exitDx=0;exitDy=0;exitPerimeter=0;endArrow=none;endFill=0;dashed=1;" edge="1" parent="1" source="VapDUICd6mzBCZcJKw8F-20">
          <mxGeometry relative="1" as="geometry">
            <mxPoint x="200" y="90" as="targetPoint" />
          </mxGeometry>
        </mxCell>
        <mxCell id="VapDUICd6mzBCZcJKw8F-20" value="Планируются массивные изменения в файлах, не слать апдейты на каждый файл" style="shape=note;whiteSpace=wrap;html=1;backgroundOutline=1;darkOpacity=0.05;size=14;" vertex="1" parent="1">
          <mxGeometry x="85" y="-130" width="130" height="110" as="geometry" />
        </mxCell>
        <mxCell id="VapDUICd6mzBCZcJKw8F-27" style="edgeStyle=orthogonalEdgeStyle;rounded=0;orthogonalLoop=1;jettySize=auto;html=1;endArrow=none;endFill=0;dashed=1;" edge="1" parent="1" source="VapDUICd6mzBCZcJKw8F-26">
          <mxGeometry relative="1" as="geometry">
            <mxPoint x="265" y="160" as="targetPoint" />
          </mxGeometry>
        </mxCell>
        <mxCell id="VapDUICd6mzBCZcJKw8F-26" value="В ответ на запрос от extension, или изменение&amp;nbsp; файлов, или новые несохранённые изменения" style="shape=note;whiteSpace=wrap;html=1;backgroundOutline=1;darkOpacity=0.05;size=14;" vertex="1" parent="1">
          <mxGeometry x="200" y="260" width="130" height="110" as="geometry" />
        </mxCell>
      </root>
    </mxGraphModel>
  </diagram>
</mxfile>
